<?xml version="1.0" encoding="UTF-8"?>
<svg id="Layer_1" data-name="Layer 1" xmlns="http://www.w3.org/2000/svg" viewBox="0 0 816.34 420.97">
  <defs>
    <style>
      .cls-1 {
        font-family: AdobeHebrew-Italic, 'Adobe Hebrew';
        font-size: 90px;
        font-style: italic;
      }

      .cls-1, .cls-2, .cls-3 {
        fill: #006;
      }

      .cls-4 {
        letter-spacing: -.02em;
      }

      .cls-2 {
        font-size: 150px;
      }

      .cls-2, .cls-5 {
        font-family: Poppins-Bold, Poppins;
        font-weight: 700;
      }

      .cls-5 {
        fill: #fff;
        font-size: 130px;
      }

      .cls-6 {
        letter-spacing: 0em;
      }

      .cls-7 {
        fill: #a400ff;
        stroke: #a400ff;
      }

      .cls-7, .cls-3 {
        stroke-miterlimit: 10;
      }

      .cls-8 {
        letter-spacing: 0em;
      }

      .cls-9 {
        letter-spacing: 0em;
      }

      .cls-10 {
        letter-spacing: 0em;
      }

      .cls-3 {
        stroke: #006;
      }

      .cls-11 {
        letter-spacing: -.01em;
      }

      .cls-12 {
        letter-spacing: -.02em;
      }
    </style>
  </defs>
  <path class="cls-3" d="M235.99,153.55l-21.95,5.69c-1.35.35-2.65.85-3.88,1.52-.26.15-.59.29-.97.45-8.83,3.62-16.88,8.93-23.95,15.35l-7.97,7.23c-.7.63-1.35,1.3-1.97,2.01l-86.32,98.28c-3.95,4.89-9.73,7.43-15.56,7.43-4.42,0-8.86-1.46-12.56-4.45-8.59-6.94-9.92-19.54-2.98-28.13l112.03-138.57c13.15-16.27,1.57-40.52-19.35-40.52H45.38C20.59,79.84.5,99.94.5,124.72v250.86c0,24.79,20.09,44.88,44.88,44.88h250.86c24.79,0,44.88-20.09,44.88-44.88v-175.95c0-48.56-50.27-46.97-98.93-46.88-2.1,0-4.18.27-6.21.8Z"/>
  <circle class="cls-3" cx="277.58" cy="64.04" r="63.54"/>
  <rect class="cls-7" x="172.09" y="214.62" width="160" height="160.75" rx="20.4" ry="20.4"/>
  <text class="cls-5" transform="translate(177.83 337.26)"><tspan x="0" y="0">zd</tspan></text>
  <text class="cls-2" transform="translate(391.24 264.72)"><tspan x="0" y="0">Ziindi</tspan></text>
  <text class="cls-1" transform="translate(440.63 350.33)"><tspan class="cls-10" x="0" y="0">S</tspan><tspan class="cls-11" x="43.92" y="0">o</tspan><tspan class="cls-8" x="86.49" y="0">f</tspan><tspan class="cls-6" x="112.14" y="0">t</tspan><tspan class="cls-9" x="140.67" y="0">w</tspan><tspan class="cls-4" x="202.23" y="0">a</tspan><tspan class="cls-12" x="246.24" y="0">r</tspan><tspan x="278.55" y="0">e</tspan></text>
</svg>