<?xml version="1.0" encoding="UTF-8"?>
<svg id="Layer_1" data-name="Layer 1" xmlns="http://www.w3.org/2000/svg" viewBox="0 0 1014.4 514.75">
  <defs>
    <style>
      .cls-1 {
        font-size: 230px;
      }

      .cls-1, .cls-2 {
        font-family: Poppins-Bold, Poppins;
        font-weight: 700;
      }

      .cls-1, .cls-3 {
        fill: #006;
      }

      .cls-2 {
        fill: #fff;
        font-size: 130px;
      }

      .cls-4 {
        fill: #a400ff;
        stroke: #a400ff;
      }

      .cls-4, .cls-3 {
        stroke-miterlimit: 10;
      }

      .cls-3 {
        stroke: #006;
      }
    </style>
  </defs>
  <path class="cls-3" d="M235.99,153.55l-21.95,5.69c-1.35.35-2.65.85-3.88,1.52-.26.15-.59.29-.97.45-8.83,3.62-16.88,8.93-23.95,15.35l-7.97,7.23c-.7.63-1.35,1.3-1.97,2.01l-86.32,98.28c-3.95,4.89-9.73,7.43-15.56,7.43-4.42,0-8.86-1.46-12.56-4.45-8.59-6.94-9.92-19.54-2.98-28.13l112.03-138.57c13.15-16.27,1.57-40.52-19.35-40.52H45.38C20.59,79.84.5,99.94.5,124.72v250.86c0,24.79,20.09,44.88,44.88,44.88h250.86c24.79,0,44.88-20.09,44.88-44.88v-175.95c0-48.56-50.27-46.97-98.93-46.88-2.1,0-4.18.27-6.21.8Z"/>
  <circle class="cls-3" cx="277.58" cy="64.04" r="63.54"/>
  <rect class="cls-4" x="172.09" y="214.62" width="160" height="160.75" rx="20.4" ry="20.4"/>
  <text class="cls-2" transform="translate(177.83 337.26)"><tspan x="0" y="0">zd</tspan></text>
  <text class="cls-1" transform="translate(362.59 375.37)"><tspan x="0" y="0">Ziindi</tspan></text>
</svg>