<?xml version="1.0" encoding="UTF-8"?>
<svg id="Layer_1" xmlns="http://www.w3.org/2000/svg" version="1.1" viewBox="0 0 1024 1024">
  <!-- Generator: Adobe Illustrator 29.5.0, SVG Export Plug-In . SVG Version: 2.1.0 Build 137)  -->
  <defs>
    <style>
      .st0 {
        fill: #fff;
        font-family: Poppins-Bold, Poppins;
        font-size: 130px;
        font-weight: 700;
      }

      .st1 {
        fill: #a400ff;
        stroke: #a400ff;
      }

      .st1, .st2 {
        stroke-miterlimit: 10;
      }

      .st2 {
        fill: #006;
        stroke: #006;
      }
    </style>
  </defs>
  <path class="st2" d="M588.78,352.58l-21.95,5.69c-1.35.35-2.65.85-3.88,1.52-.26.15-.59.29-.97.45-8.83,3.62-16.88,8.93-23.95,15.35l-7.97,7.23c-.7.63-1.35,1.3-1.97,2.01l-86.32,98.28c-3.95,4.89-9.73,7.43-15.56,7.43-4.42,0-8.86-1.46-12.56-4.45-8.59-6.94-9.92-19.54-2.98-28.13l112.03-138.57c13.15-16.27,1.57-40.52-19.35-40.52h-105.17c-24.79,0-44.88,20.09-44.88,44.88v250.86c0,24.79,20.09,44.88,44.88,44.88h250.86c24.79,0,44.88-20.09,44.88-44.88v-175.95c0-48.56-50.27-46.97-98.93-46.88-2.1,0-4.18.27-6.21.8Z"/>
  <circle class="st2" cx="630.37" cy="263.07" r="63.54"/>
  <rect class="st1" x="524.89" y="413.64" width="160" height="160.75" rx="20.4" ry="20.4"/>
  <text class="st0" transform="translate(530.63 536.29)"><tspan x="0" y="0">zd</tspan></text>
</svg>